<?xml version="1.0" encoding="UTF-8"?>
<svg id="_レイヤー_1" data-name="レイヤー_1" xmlns="http://www.w3.org/2000/svg" width="279.91" height="61.53" viewBox="0 0 279.91 61.53">
  <defs>
    <style>
      .cls-1 {
        opacity: .25;
      }

      .cls-2 {
        fill: none;
        stroke: #000;
        stroke-linecap: round;
        stroke-linejoin: round;
        stroke-width: 6px;
      }

      .cls-3 {
        fill: #fbca41;
        isolation: isolate;
      }
    </style>
  </defs>
  <g id="base">
    <path id="Campaign" class="cls-3" d="M6.81,46.83c-.6-.2-1.2-.5-1.8-.8s-1.2-.7-1.7-1.2-1-1.3-1.4-2.2c-.4-1.2-.7-2.3-.8-3.4-.1-1.1-.2-2.4-.1-3.9,0-2.1.1-3.9.5-5.4.3-1.5.8-3.1,1.4-4.7,0-.1.2-.5.5-1,.2-.6.5-1.2.8-1.9s.5-1.2.7-1.6c.3-.7.8-1.6,1.5-2.7.7-1.1,1.4-2.2,2.1-3.3,1.2-1.7,2.1-3.1,2.9-4.1s1.5-1.8,2.2-2.5,1.4-1.3,2.3-2c.9-.6,2-1.4,3.3-2.3.9-.6,1.8-1,2.9-1s2,.2,3,.7c.9.5,1.6,1.2,2,2.2.4.8.7,1.9.7,3s-.2,2.4-.5,3.7-.9,2.5-1.5,3.7c-.6,1.2-1.4,2.1-2.2,2.9-.5.5-1,.7-1.4.5-.4-.1-.9-.4-1.5-1-.4-.7-.6-1.1-.6-1.2s0-.2.2-.2c.2-.3.6-.8,1-1.4.4-.7.8-1.4,1.2-2.2.4-.8.7-1.4.8-1.9.3-1.7.5-2.9.7-3.6.1-.7,0-1.2-.4-1.6-.2-.2-.4-.2-.7-.2s-.8.2-1.5.6c-.9.4-2.1,1.3-3.6,2.7-1.5,1.4-2.8,2.9-4.1,4.6-1.6,2.1-2.9,4-4,5.6s-1.9,3.3-2.5,5c0,.2-.3.7-.7,1.6,0,.2,0,.5-.2,1.2-.2.6-.3,1.2-.5,1.6-.4,1.8-.7,3.8-.8,5.7,0,2,0,3.7.3,5.2s.8,2.6,1.4,3.2c.5.4,1.2.5,2.1.4.9-.1,1.9-.4,3.1-.8,1.2-.4,2.3-.9,3.5-1.4,1-.4,1.8-.8,2.6-1.3.8-.5,1.4-.9,1.8-1.3.3-.2.7-.5,1.2-.8s.9-.4,1.3-.4c.6-.2.9-.3,1-.2,0,0,.1.2.1.5,0,.6-.3,1.2-.9,1.9s-1.4,1.3-2.4,1.9c-.3.3-.7.7-1.3,1-.5.4-1.1.6-1.6.8-.8.6-1.9,1.3-3.1,1.9-1.2.6-2.5,1.1-3.8,1.4-1.3.3-2.4.4-3.5.2v-.2ZM40.71,41.23c-.2-.3-.4-.6-.6-.8-.2-.2-.4-.3-.4-.5v-.5c0-.2-.1-.3-.3-.5s-.2-.8,0-1.6c.2-.9.6-1.9,1.2-3.2.6-1.3,1.2-2.6,2-4,.3-.3.6-.7,1-1.3.3-.5.6-.9.7-1,0-.2,0-.3.2-.5.1-.1.3-.2.4-.2v-.4c0-.2.2-.5.6-1,.4-.5.8-1,1.4-1.6l1.7-1.7c.6-.6,1.1-.9,1.5-1.2.8-.6,1.7-.9,2.6-1,.9-.1,1.7,0,2.3.6l.6.6c.3.3.6.6,1,.9.4.3.8.7,1.2,1l2.2,2-1.1,3c-.5,1.6-.7,3-.4,4.2.3,1.2.6,2.2,1.2,3.1.2.4.6.9,1.2,1.3.6.4,1.2.6,1.8.7.3,0,.6.2.9.4s.4.5.4,1,0,.7-.2,1c-.2.2-.4.4-.8.5-1.3.2-2.6-.2-3.7-1s-2.2-2.1-3.1-4c-.2-.2-.4-.7-.6-1.3-.3-.7-.4-1.1-.5-1.3-.2.2-.5.6-.9,1.1s-.8.9-1,1.2c-2.8,2.9-5.3,4.8-7.4,5.8-2.1,1-3.8,1-5.1.1v.1ZM44.21,37.93c.9-.3,1.8-.8,2.8-1.7,1.4-1.2,2.7-2.4,4.1-3.8s2.5-2.7,3.3-3.9l1.3-2.2c-.4-.9-.8-1.5-1.3-1.9-.5-.3-.9-.5-1.2-.5-.5,0-1.3.5-2.3,1.4s-2.1,2.2-3.3,3.8-2.3,3.4-3.3,5.3c-.4.8-.9,1.9-1.5,3.4,0,.3.4.3,1.3,0l.1.1ZM105.61,40.93c-.2,0-.5-.3-.9-.6s-.7-.9-1-1.6c-.3-.8-.4-1.9-.4-3.3v-2.8c0-.7-.1-1-.5-1s-.9.3-1.8.9c-.9.6-1.9,1.5-3.1,2.5s-2.3,2.2-3.5,3.5c-.4.4-.8.9-1.2,1.2-.4.4-.8.6-1.1.7-.4.1-.8,0-1.3-.4l-.7-.5c-.2-.2-.3-.4-.4-.6v-.8l1.4-4c.6-1.4,1.1-2.5,1.3-3.2.2-.7.4-1.1.4-1.3s0-.2-.2-.2c-.3,0-.8.2-1.4.6-.6.3-1.1.7-1.3,1-.2,0-.4.2-.7.5-.3.4-.7.7-1.2,1-.3.5-.8,1.1-1.7,1.9-.8.8-1.6,1.5-2.4,2.3-.5.4-1,1-1.5,1.6s-.9,1.2-1.3,1.7c-.3.5-.6.7-.7.7-.5,0-1-.1-1.4-.4-.4-.3-.7-.7-.9-1.4-.3-.7-.3-1.6,0-2.9.3-1.2.7-2.8,1.1-4.8.2-.6.3-1,.3-1.3s.1-.6.2-.9c0-.3.3-.8.5-1.4.3-.6.7-1.6,1.2-2.9.3-.8.4-1.3.5-1.7v-.8c0-.4.1-.7.3-1,.2-.3.5-.5.8-.6s.6-.1.9,0c.4,0,.8.3,1.2.7.3.4.5.9.6,1.5,0,.5,0,.9-.1,1.3-.1.4-.2.7-.4,1.1l-.7,1.6c-.2.4-.5,1.1-.8,1.9-.3.8-.6,1.6-.8,2.3-.2.7-.4,1.1-.4,1.2s.2,0,.4,0c.2-.2.5-.4.9-.8.4-.3.8-.7,1.2-1,.8-.8,1.8-1.6,2.9-2.3s2.1-1.4,3-1.9c1-.5,1.7-.9,2.2-1,.7,0,1.1.1,1.4.4.3.2.7.7,1.3,1.3.3.3.4.6.5,1.1v1.3c0,.2-.2.6-.4,1.2-.2.6-.5,1.5-.8,2.6.9-.8,1.7-1.4,2.2-1.9.6-.5,1-.8,1.3-1.1,1.6-1.2,2.9-2,4.1-2.3s2.1,0,2.8,1.3c.5.4.7.9.8,1.4v2.7c0,.5,0,1.1.1,1.9,0,.7,0,1.4.2,2s.1.9.2,1c.1.2.3.3.7.4.3.1.8.2,1.4.3.6,0,1,.3,1.1.8.1.4-.1.9-.8,1.3-.6.4-1.3.5-2,.5s-1.4-.2-1.9-.4l.3-.1ZM121.81,56.83h-.6c-.2,0-.5-.1-.7-.5-.2-.2-.2-.5-.3-.9,0-.4,0-1.1.3-2.2.2-.7.4-1.4.5-2,.1-.7.2-1.2.2-1.5s0-.5.1-.9c0-.5.1-.8.1-1,.2-.3.4-.8.5-1.3.1-.6.2-1.1.2-1.5s.2-.9.7-1.3c0-.3,0-.7.2-1.2.1-.5.2-.8.2-1,.1-.6.4-1.5.8-3,.4-1.4.9-3,1.6-4.8.6-1.8,1.2-3.6,1.8-5.3s1.1-3.2,1.6-4.4c.5-1.1.8-2.1,1-2.9.2-.8.3-1.4.3-1.8s0-.3.1-.4c0,0,.3-.3.5-.6.4-.4.8-.5,1.1-.4.3.2.7.4,1.1.7.3.5.5,1,.7,1.3.1.4.1,1,0,1.9,0,.6-.1,1.1-.3,1.6-.2.4-.4.8-.5,1-.2.2-.2.3-.1.3,1.6-.8,3.1-1.2,4.3-1.2,1.3,0,2.3.2,3.2.7s1.5,1.2,2,2.1c.4.9.7,1.9.7,3.1s-.1,1-.3,1.7-.4,1.3-.8,1.8c-.3.5-.6.9-.8,1.2-.2,0-.3.1-.5.4-.2.3-.3.6-.5.9-.3.4-.8.9-1.5,1.4s-1.4.9-2.1,1.2c-.7.3-1.2.4-1.5.3-.2,0-.3.2-.3.4s-.3.3-1,.5c-.6.3-1.4.5-2.2.7s-1.6.3-2.2.3-1.4-.2-1.8-.5c0,0-.2.2-.3.4s-.1.3-.1.4c0,.2,0,.7-.3,1.4-.2.7-.4,1.3-.6,1.9-.2.6-.5.9-.7.9-.2.2-.2.5,0,.7,0,.9-.2,1.5-.4,1.9,0,.3,0,.8-.2,1.4-.1.6-.3,1.1-.4,1.4,0,.5,0,1-.2,1.4-.1.5-.3.7-.5.7s-.3.3-.3.8v1c0,1-.2,1.8-.6,2.3s-.8.8-1.3.8l.1-.3ZM129.11,36.83c.3,0,1-.1,2-.4,1-.3,2-.6,3.1-1.1,1.1-.4,1.8-.8,2.4-1.3,1-.9,1.8-2,2.4-3.1.6-1.2.5-2.3-.1-3.4-.3-.6-.9-.8-1.7-.7s-1.8.4-2.8,1-1.9,1.3-2.8,2.1c-.5.5-.9,1.2-1.3,1.9-.4.8-.7,1.5-1,2.3s-.4,1.4-.4,1.9,0,.8.4.8h-.2ZM159.21,41.23c-.2-.3-.4-.6-.6-.8s-.4-.3-.4-.5v-.5c0-.2-.1-.3-.3-.5s-.2-.8,0-1.6c.2-.9.6-1.9,1.2-3.2.6-1.3,1.2-2.6,2-4,.3-.3.6-.7,1-1.3s.6-.9.7-1c0-.2,0-.3.2-.5.1-.1.3-.2.4-.2v-.4c0-.2.2-.5.6-1,.4-.5.8-1,1.4-1.6.6-.6,1.1-1.1,1.7-1.7.6-.5,1.1-.9,1.5-1.2.8-.6,1.7-.9,2.6-1s1.7,0,2.3.6c.1.1.3.3.6.6s.6.6,1,.9c.4.3.8.7,1.2,1l2.2,2-1.1,3c-.5,1.6-.7,3-.4,4.2s.6,2.2,1.2,3.1c.2.4.6.9,1.2,1.3.6.4,1.2.6,1.8.7.3,0,.6.2.9.4.3.2.4.5.4,1s0,.7-.2,1c-.2.2-.4.4-.8.5-1.3.2-2.6-.2-3.7-1-1.1-.8-2.2-2.1-3.1-4-.2-.2-.4-.7-.6-1.3s-.4-1.1-.4-1.3c-.2.2-.5.6-.9,1.1s-.8.9-1,1.2c-2.8,2.9-5.3,4.8-7.4,5.8-2.1,1-3.8,1-5.1.1l-.1.1ZM162.71,37.93c.9-.3,1.8-.8,2.8-1.7,1.4-1.2,2.7-2.4,4.1-3.8,1.4-1.4,2.5-2.7,3.3-3.9l1.3-2.2c-.4-.9-.8-1.5-1.3-1.9-.5-.3-.9-.5-1.2-.5-.5,0-1.3.5-2.3,1.4-1,1-2.1,2.2-3.3,3.8s-2.3,3.4-3.3,5.3c-.4.8-.9,1.9-1.5,3.4,0,.3.4.3,1.3,0l.1.1ZM197.71,41.53c-.3-.3-.5-.7-.7-1.2-.1-.5-.2-1-.2-1.4,0-.5.1-.9.3-1.2,0-.3,0-.6.2-.8,0-.2.1-.3,0-.5,0-.2,0-.4.1-.8.1-.4.2-.8.4-1.1.3-.6.6-1.4.9-2.3.3-.9.6-1.8.9-2.7.3-.9.5-1.6.7-2.3.2-.6.3-1,.4-1.2,0-.5.3-.7,1-.8.5-.2.8-.2,1.1,0,.2.1.6.5,1,1.2.3.3.4.8.4,1.4s-.3,1.4-.8,2.4c-.2.3-.4.8-.6,1.4-.2.6-.4,1.1-.4,1.6-.2.3-.4.8-.6,1.3-.2.6-.4,1.1-.6,1.7,0,.2-.2.5-.2.9s-.2.8-.3,1.2-.3.8-.5,1.1c-.4,1.6-.7,2.6-1,2.9-.3.3-.8,0-1.5-.7v-.1ZM203.51,17.13c-.2-.2-.4-.5-.5-.9-.2-.4-.3-.7-.3-1.1,0-.3,0-.5.1-.5.3,0,.7-.4,1.1-1,.4-.6.6-1.2.5-1.7,0-.2,0-.3.2-.4.1-.1.3-.2.4-.3.5-.3.9-.4,1.4-.1.5.2.9.7,1.3,1.3.4.8.5,1.4.3,1.9s-.6,1.2-1.3,2.1c-.6.8-1.2,1.2-1.7,1.3-.5,0-1,0-1.6-.5l.1-.1ZM226.61,54.93c-1.1.4-2.3.4-3.5-.2s-2.3-1.5-3.1-2.7c-.2-.2-.4-.6-.6-1.1-.2-.5-.4-1-.6-1.5-.2-.5-.3-1-.3-1.4s0-.6.1-.7c.1-.1.3-.2.6-.1.3,0,.5.1.8.3s.4.4.5.6c.1.3.3.6.6,1.1.3.4.5.8.9,1.2.3.4.6.6.7.6.8.4,1.3.5,1.7.5s.7-.2,1-.4c.7-.5,1.2-1.2,1.7-2,.4-.8.9-2.1,1.5-3.9.4-1.5.9-3,1.3-4.7.5-1.7.9-2.9,1.2-3.9.1-.5.3-.9.4-1.2.2-.3.3-.6.5-.8h.4c-.9.6-1.7,1.2-2.3,1.9-.7.7-1.5,1.3-2.6,1.7-.2.3-.8.5-1.8.5-.9,0-1.9,0-2.7-.3-.6-.3-1-.6-1.2-.7-.3-.2-.5-.4-.6-.7s-.3-.7-.6-1.3-.3-1.6-.1-2.9c.2-1.4.6-2.7,1.1-4.1.5-1,1.2-2.1,2.1-3.2.9-1.2,1.9-2.2,2.9-3.2,1-.9,2-1.5,2.8-1.8.3-.2.7-.3,1-.3.4,0,.9,0,1.7.2.7,0,1.2.2,1.6.4.4.2.9.7,1.7,1.4.5.5.9,1,1.3,1.6.3.5.6,1.1.8,1.6.3.6.4,1.2.3,1.7,0,.5-.3,1-.7,1.5s-.7,1-1.1,1.6c-.4.5-.7,1.2-.9,2.2-.2,1.2-.5,2.5-1,4s-.8,2.9-1.1,4.2l-1,3.7c-1,3.4-2,5.9-2.9,7.6-.9,1.7-1.8,2.7-2.5,3.2v-.2ZM224.41,35.73c.8,0,1.6-.2,2.3-.5s1.4-.8,2.1-1.4,1.4-1.5,2-2.5c.7-1,1.2-2,1.4-3,.3-1.1.4-2.1.3-3.1,0-.6-.1-1.1-.3-1.3s-.5-.3-1-.2c-.8.1-1.6.5-2.5,1.2s-1.8,1.6-2.6,2.6c-.6.8-1.1,1.8-1.5,2.9-.4,1.2-.6,2.3-.7,3.4s0,1.7.5,1.9ZM274.81,40.63c-.8,0-1.5-.2-2-.5s-1-.9-1.3-1.7c-.2-.6-.3-1.2-.4-1.9,0-.7-.2-1.4-.2-2s0-1,.2-1.2.2-.5.2-.9v-1.3c0-.8-.2-1.2-.6-1.4-.3,0-.8,0-1.5.4s-1.7,1-2.8,1.8c-1.2.7-2.4,1.6-3.6,2.4-1.3.9-2.5,1.8-3.6,2.8-.9,1-1.4,1.7-1.6,2.2s-.4.8-.8.8c-.3.2-.6.2-.8,0-.2-.1-.5-.4-.9-.7-.3-.3-.6-.6-.8-.9-.3-.3-.5-.5-.5-.7s0-.6.2-1.3c.1-.6.3-1.3.5-1.9.2-.6.3-1.1.4-1.3.2,0,.4-.2.5-.6.1-.4.4-.8.7-1.3,0-.5.3-1.1.6-2,.3-.8.6-1.5.9-2.2.6-1,.9-1.8,1.2-2.4.2-.6.4-1.4.4-2.4,0-.2,0-.3.1-.4.1-.1.3-.2.4-.2.3-.3.7-.4,1.1-.3.4.1.8.5,1.2.9.7,1,1,2,.9,3s-.8,2.5-1.9,4.3c-.3.6-.5,1.1-.6,1.5-.1.3-.2.6-.2.8.8-.6,1.5-1,2.1-1.4.5-.4,1-.7,1.3-.9.2-.2.7-.6,1.4-1.1.7-.5,1.5-1,2.3-1.5s1.4-.8,1.8-.9c.3-.2.7-.3,1-.5.4-.1.6-.2.8-.2.3,0,.7.2,1.2.5s1,.7,1.4,1.2.7.9.8,1.2v1c.2.5.2,1.2.3,2.1v2.4c0,.7-.2,1.1-.4,1.3,0,.2.1.3.3.3v.3c-.2,0-.3.2-.2.5,0,.3.2.7.4,1.1.2.4.4.7.7,1,.5.5.7.9.6,1.4s-.4.7-1.1.9l-.1-.1Z"/>
  </g>
  <g id="mask" class="cls-1">
    <path class="cls-2" d="M20.01,20.33s3.8-4.9,4.8-8.3.3-5.8-1.3-7.6S9.51,11.93,5.71,23.43c-3.8,11.5-3.7,19.6.9,21.5,4.6,1.9,17.9-7.4,17.9-7.4,0,0,22-33.2,33.2-22.9s.6,11.5.6,11.5c0,0-2.7-5.1-5.1-4.3s-13.9,13.6-11.7,17.8,16.2-11.8,16.2-11.8c0,0-3.1,10.5,6.2,11.6s11.8-22.9,18.4-23.2-2.6,23.1-2.6,23.1c0,0,11.6-12.3,14.4-11.1s-2.2,11.2-2.2,11.2c0,0,9.9-11.2,11.9-9.3s-.5,9.7,3.7,9.7,5.6-.4,5.6-.4c0,0,11.4-22.8,15.5-22.8s2.7,5.2,2.2,7-1.3,3.8-3,7.6-2.4,4.7-2.1,4.7-4.9,18.8-4.9,18.8l4.6-22.7s12.3-10.8,15.4-4.5-7.6,10.8-10.4,10.8h-4s8.9,7.1,15,4.2,11.4-32.7,24.7-29.1,11.4,13,11.4,13c0,0-4-5.5-7-3.4s-13.4,14.7-9.8,17.1,15.7-12.5,15.7-12.5c0,0-1.7,6.7,1.2,9.4s6.7,3.3,6.7,3.3c0,0,10.2-42,21.3-36.9s-1.3,13.6-1.3,13.6l-6.7,26.2s5.2,3.2,10.7-.7,5.6-34.5,20.9-31.3,6.2,16.5,6.2,16.5c0,0-.5-2.9-2.7-5.2s-7.5,3.7-8.7,5.8-3.5,6.8-.9,8.7,9-3.1,10.6-6.2-3.9,22.7-8.5,22.7-6.8-7.6-6.8-7.6c0,0-3.1,12.3-2.7,12.6s45.3-39.9,45.7-39.5-6.2,24.1-6.2,24.1l1.2-6.1s11.3-11.2,14.7-9.3.3,5.9,1.4,8.7,4.4,5.6,4.4,5.6"/>
  </g>
</svg>