<?xml version="1.0" encoding="UTF-8"?>
<svg xmlns="http://www.w3.org/2000/svg" version="1.1" viewBox="0 0 195.4 76">
  <defs>
    <style>
      .cls-1 {
        fill: #fbca41;
        isolation: isolate;
      }

      .cls-2 {
        fill: none;
        opacity: .5;
        stroke: #000;
        stroke-linecap: round;
        stroke-linejoin: round;
        stroke-width: 5px;
      }
    </style>
  </defs>
  <!-- Generator: Adobe Illustrator 28.7.3, SVG Export Plug-In . SVG Version: 1.2.0 Build 164)  -->
  <g>
    <g id="base">
      <path id="Points" class="cls-1" d="M6.6,60.9c-.5,0-.9-.3-1.2-.8-.2-.2-.4-.6-.4-1,0-.4,0-1.2.4-2.3.3-1.1.9-2.8,1.6-5.1.4-1.5.7-2.6,1-3.3.2-.7.4-1.2.4-1.5s0-.8.2-1.1c0-.3.1-.6.1-.9.2,0,.5-.2.7-.7.2-.4.4-1,.6-1.8.2-.7.3-1.2.5-1.7.1-.4.2-.7.2-.9.2-.3.4-.8.6-1.5.2-.7.6-1.5,1.1-2.5.3-1.2.7-2.5,1.1-3.8.4-1.3.8-2.5,1.2-3.7.4-1.1.8-2,1.1-2.7.4-1.2.8-2.1,1-2.6.2-.5.2-.8,0-1-.3-.2-.3-.5-.2-1,.2-.5.6-1,1.3-1.6.4-.5.8-.9,1.1-1.1.3-.2.7-.3,1.2-.3s1.2,0,2.2.1c.7,0,1.5,0,2.3,0h1.5c.4.2.8.3,1.3.5.5.2,1,.4,1.4.5.4.2.6.3.6.4,0,.2,0,.4.3.5s.4.1.6.2c.3,0,.7.2,1.1.6s1,.9,1.5,1.6c.5.6.9,1.3,1.2,2,.3.7.6,1.3.8,1.9.2.6.2,1.5,0,2.6,0,.6-.1,1.2-.3,1.8-.1.6-.3,1-.4,1.2-.2.2-.5.4-.7.6-.2.2-.3.5-.3.7s-.1.5-.4.9c-.3.5-.6,1-1.1,1.6-.4.6-.9,1.2-1.4,1.8-.5.6-1,1.1-1.5,1.6-.5.6-1.1,1.2-1.8,1.8-.7.6-1.3,1-1.9,1.4-1,.5-2.2,1-3.5,1.4-1.3.5-2.5.9-3.6,1.2-1.1.3-2.1.5-2.8.4-1.2.2-1.9.3-2.2.5-.3.1-.6.5-.8,1-.2.5-.4,1-.6,1.6-.2.5-.3.9-.3,1.1,0,.2-.3.7-.6,1.5-.3.8-.6,1.8-1,2.9-.3,1.1-.7,2.1-1,3.2-.3,1-.6,1.9-.7,2.6-.2.6-.4.9-.6,1-.2,0-.5.1-.9.1ZM14,42.3c.2.2.8.2,1.9,0s2.2-.4,3.5-.9c.8-.3,1.6-.6,2.4-1,.8-.4,1.6-.8,2.4-1.3.4-.3,1-.8,1.8-1.5.8-.7,1.6-1.6,2.4-2.6.1-.2.3-.6.6-1.2.3-.6.6-1.1.8-1.6.4-.6.7-1.4,1.1-2.5.4-1.1.4-2,.2-2.7-.2-1-.7-2-1.6-2.9-.8-.9-1.8-1.5-3-1.8-.9-.2-1.6-.2-2.2-.2s-1.2,0-1.9.2c-.6.2-1.1.5-1.4.8-.3.4-.7,1.1-1.2,2.3-.3.6-.7,1.4-1.2,2.5-.5,1.1-1,2.2-1.3,3.2-.7,2.6-1.4,4.8-2.1,6.5-.7,1.7-1.1,2.8-1.3,3.2,0,.4,0,.8,0,.9,0,.2,0,.4.1.6ZM48.2,57.1c-.5,0-.9,0-1.2-.3-.3-.2-.7-.5-1.1-.8-.8-.8-1.3-1.6-1.6-2.3-.3-.7-.4-1.5-.3-2.1.1-.3.2-.8.1-1.4-.2-.2-.3-.3-.2-.4,0,0,.2-.2.2-.3.2,0,.3-.2.2-.7,0-.3,0-1,.5-2.1.4-1.1.9-2.1,1.5-3.1.2-.4.6-.9,1.1-1.6s1-1.3,1.6-2c.6-.7,1.1-1.2,1.6-1.6,1-.8,1.9-1.5,2.6-1.9.8-.4,1.6-.7,2.5-.9.9-.2,1.5-.3,1.8-.3s.8.3,1.4,1c.9.4,1.6.9,2,1.4.4.6.7,1.4.8,2.5.1,1.2,0,2.6-.3,4.1-.3,1.5-1.3,3.5-2.9,5.7-1,1.4-1.9,2.5-2.8,3.2-.8.7-1.8,1.4-3,2.1-.8.6-1.6,1-2.3,1.2-.7.3-1.5.4-2.4.5ZM53.9,50.7c1-1.1,1.7-2.1,2.3-3.1.6-1,1.1-2.2,1.6-3.7.2-.4.3-1,.3-1.6,0-.7,0-1.3,0-1.9,0-.6-.2-.9-.4-1-.5-.3-1.1-.4-1.7-.3-.7.1-1.4.5-2.2,1.2-1.2,1-2.3,2.3-3.2,3.9-.9,1.5-1.8,3.3-2.7,5.2-.6,1.4-.7,2.6-.4,3.5.3.9,1.1,1.2,2.2.9,1.1-.3,2.6-1.3,4.3-3.1ZM77.9,56.1c-.3-.3-.6-.7-.7-1.2-.1-.5-.2-1-.2-1.4,0-.5.1-.9.3-1.2,0-.3,0-.6.1-.8,0-.2.1-.3,0-.5,0-.2,0-.4.1-.8.1-.4.2-.8.4-1.1.3-.6.6-1.4.9-2.3.3-.9.6-1.8.9-2.7.3-.9.5-1.6.7-2.3.2-.6.3-1,.4-1.2,0-.5.3-.7,1-.8.5-.2.8-.2,1.1,0,.2.1.6.5,1,1.2.3.3.4.8.4,1.4,0,.6-.3,1.4-.8,2.4-.2.3-.4.8-.6,1.4-.2.6-.4,1.1-.5,1.6-.2.3-.4.8-.6,1.3-.2.6-.4,1.1-.6,1.7,0,.2-.2.5-.2.9,0,.4-.2.8-.3,1.2-.1.4-.3.8-.5,1.1-.4,1.6-.7,2.6-1,2.9-.3.3-.8,0-1.5-.7ZM83.7,31.7c-.2-.2-.4-.5-.5-.9-.2-.4-.3-.7-.3-1.1,0-.3,0-.5.1-.5.3,0,.7-.4,1.1-1,.4-.6.6-1.2.5-1.7,0-.2,0-.3.2-.4.1-.1.3-.2.4-.3.5-.3.9-.4,1.4-.1.5.2.9.7,1.3,1.3.4.8.5,1.4.3,1.9-.2.5-.6,1.2-1.3,2.1-.6.8-1.2,1.2-1.7,1.3-.5,0-1,0-1.6-.5ZM121.7,55.2c-.8,0-1.5-.2-2-.5-.5-.3-1-.9-1.3-1.7-.2-.6-.3-1.2-.4-1.9,0-.7-.1-1.4-.1-2s0-1,.2-1.2c.2-.2.2-.5.2-.9s0-.9,0-1.3c0-.8-.2-1.2-.6-1.4-.3,0-.8,0-1.5.4-.7.4-1.7,1-2.8,1.8-1.2.7-2.4,1.6-3.6,2.4s-2.5,1.8-3.6,2.8c-.9,1-1.4,1.7-1.6,2.2-.2.5-.4.8-.8.8-.3.2-.6.2-.8,0-.2-.1-.5-.4-.9-.7-.3-.3-.6-.6-.8-.9-.3-.3-.5-.5-.5-.7,0-.2,0-.6.2-1.3.1-.6.3-1.3.4-1.9.2-.6.3-1.1.4-1.3.2,0,.4-.2.5-.6.1-.4.4-.8.7-1.3,0-.5.3-1.1.6-2,.3-.8.6-1.5.9-2.2.6-1,.9-1.8,1.2-2.4.2-.6.4-1.4.5-2.4,0-.2,0-.3.1-.4.1-.1.3-.2.4-.2.3-.3.7-.4,1.1-.3.4.1.8.5,1.2.9.7,1,1,2,.9,3-.1,1-.8,2.5-2,4.3-.3.6-.5,1.1-.6,1.5-.1.3-.2.6-.2.8.8-.6,1.5-1,2.1-1.4.5-.4,1-.7,1.3-.9.2-.2.7-.6,1.4-1.1.7-.5,1.5-1,2.3-1.5.8-.5,1.4-.8,1.8-.9.3-.2.7-.3,1-.5.4-.1.6-.2.8-.2.3,0,.7.2,1.2.5.5.3,1,.7,1.4,1.2.4.5.7.9.8,1.2,0,.2,0,.3,0,.5,0,.2,0,.3,0,.5.2.5.2,1.2.3,2.1,0,.9,0,1.7,0,2.4,0,.7-.2,1.1-.4,1.3,0,.2.1.3.3.3v.3c-.2,0-.3.2-.2.5,0,.3.2.7.4,1.1.2.4.5.7.7,1,.5.5.7.9.6,1.4,0,.4-.4.7-1.1.9ZM143.6,57.6c-.4,0-.9-.3-1.4-.7-.5-.4-.9-.8-1.2-1.3s-.6-1-.7-1.4c0,0-.1-.2-.3-.5-.2-.1-.2-.7-.3-1.6,0-.9,0-2,.2-3.2.1-1.2.3-2.1.4-2.8.2-.6.5-1.5.9-2.6.4-1.1.7-2.1,1-3l1.6-3.5-2.4-.7c-.3,0-.5-.2-.7-.5s-.3-.4-.3-.6c0-.3.2-.7.5-1.2.4-.5.6-.7.8-.7.2,0,.6,0,1.1,0s1.1,0,1.6,0c.5,0,.8,0,1-.1.2,0,.3-.2.5-.3.2-.1.3-.3.4-.6.2-.4.4-.8.5-1.2.2-.4.4-.8.7-1.3.3-.5.5-1,.7-1.3.2-.4.5-.9.9-1.5.2-.3.4-.6.7-1,.2-.4.5-.7.9-1,.4-.3.7-.5,1.1-.5.4,0,.9.3,1.5.8.3.4.5.7.5.9,0,.2-.1.6-.5,1.1-.3.7-.7,1.4-1.1,2-.4.7-.8,1.4-1.2,2-.6.9-.8,1.4-.4,1.5.4.1,1.5,0,3.4-.2,1.2-.2,2-.2,2.5.1s.8.8.9,1.5c.1,1,0,1.5-.3,1.7-.3.2-1.2.3-2.8.3-1,.2-1.8.3-2.5.3-.7,0-1.2,0-1.5,0-.5,0-.9,0-1,0s-.4,0-.7.1c-.3,0-.6.2-.7.4-.1.2-.3.4-.5.8-.2.2-.4.6-.7,1.3-.3.7-.7,1.4-1.2,2.2-.6,1.7-1,3.4-1.4,5-.4,1.7-.7,3.3-1,4.8-.2,1-.1,1.7,0,2.1.2.4.7.6,1.6.7.4,0,1.1,0,2.1,0,1,0,1.8-.2,2.3-.3.4-.2.9-.4,1.4-.6s.9-.5,1.3-.7c.4-.2.9-.5,1.6-1,.2-.3.4-.4.7-.3s.4.4.6.9c0,.5,0,1-.3,1.5-.2.5-.9,1.1-2.2,1.9-1.8,1.1-3.5,1.8-5,2-1.5.2-2.8.2-3.8,0ZM174.4,58.2c-.8-.3-1.5-.8-2.2-1.3-.7-.5-1.1-1-1.3-1.4,0-.4,0-.6.2-.8.1-.1.5-.2,1.1-.2.6,0,1.5.1,2.8.3.5,0,1.1,0,1.8-.1s1.4-.2,2-.4c.6-.2,1-.4,1-.6.2,0,.2,0,.1-.2-.1-.1-.3-.3-.4-.5-.2,0-.3,0-.5-.2-.2-.1-.4-.2-.5-.2,0-.2-.2-.4-.6-.7-.4-.3-.8-.5-1.2-.6-.9-.7-1.6-1.4-2.3-2-.6-.6-.9-1-.7-1.2v-.3c-.3,0-.6-.4-.9-1.2-.3-.8-.5-1.5-.5-2.2s.1-1.1.4-1.8c.3-.7.7-1.5,1.1-2.3.5-.8,1-1.5,1.5-2,.7-.7,1.6-1.4,2.7-2.2,1.1-.8,2.1-1.5,3.2-2.1,1.1-.6,2-1,2.7-1.2.7-.3,1.4-.4,2-.4s1.2.1,1.7.4c.4.2.8.5,1.1.9.3.4.6.8.9,1.1.3.4.4.7.5,1,0,.5,0,1-.1,1.6,0,.6-.2,1.1-.3,1.5-.1.4-.4.7-.6.7-.2,0-.3.2-.3.4,0,.4-.3.9-.9,1.4-.8.5-1.4.8-2,.9s-.9-.1-1-.6c-.1-.2-.2-.3-.2-.4,0-.1-.1-.2-.3-.2-.2-.2-.4-.5-.4-.8s.1-.4.4-.7c.2,0,.5-.2.8-.7.3-.5.6-1,.9-1.5s.4-.9.4-1.1,0-.4,0-.4c0,0-.2,0-.6,0-.6.2-1.2.6-2,1-.8.4-1.5.8-2.2,1.2-.7.4-1.2.7-1.5,1-.2.3-.3.5-.3.5,0,0-.1,0-.3,0,0-.2-.1,0-.4.2s-.6.7-1,1.2c-.4.5-.7,1-1.1,1.5-.3.5-.6.9-.8,1.1,0,0-.2.3-.3.7-.1.4-.1.7-.1,1-.2.5-.1.8,0,1s.6.6,1.3,1.1c1.4,1,2.5,1.9,3.3,2.6.8.7,1.4,1.2,1.8,1.7.4.4.6.8.7,1.2.7,1.2.9,2.1.7,2.8-.3.6-1,1.2-2,1.7-.4.2-1.1.4-2,.5-.9.1-1.9.2-2.8.2-1,0-1.7,0-2.3,0Z"/>
    </g>
    <g id="mask">
      <path class="cls-2" d="M18.7,22.6L4.9,61.8s-6.6-15.4-.8-27.5,12.8-14.1,15.8-14.1,15.2,0,12.1,9.9-11,12.1-14.3,12.9-7,.8-7,.8c0,0,6.5,9.8,14.6,9.8s20.7-22,30.8-20.6,3.5,6.5,3.5,6.5c0,0-2.9-4.9-8.4.7s-6.3,12.8-4,15,9.2-4.7,10.5-6,1.8-5,2.5-8.2,24.5-19.8,27.7-19-4.3,9.7-4.3,9.7c0,0-9.7,1.8-8.1,3.4s6.4,3.3,7.4,3.3-5.4,19.1-5.4,19.1c0,0,5.7,7.1,11.7,2.7s14.5-27.9,16.9-26.6,2.1,7.1,1.6,7.5-7,13.8-7,13.8c0,0,13.2-13.1,16.8-12.4s2.1,5.1,2.1,6.9.2,4.6,3.2,5.9,14.6-20.3,15.6-20.3,24.3.2,24.3.2c0,0-4.9-13.1-6.3-13.1s-9.7,10.7-12.4,20-2.3,12.2-1.3,13.2,2.3,1,6.5,0,9.2-4,9.2-4c0,0-6.1,10,9.2,14.9s27.3-7.4,26-15.7-9.2-5.5-9.2-5.5l1-3.4s5.1-3.7,2.9-6.3-9.7,2.8-9.7,2.8c0,0-5.1,4.7-4.1,7.7s7.4,6.9,7.4,8.9-8.7,2-8.7,2h-3.3"/>
    </g>
  </g>
</svg>