<?xml version="1.0" encoding="UTF-8"?>
<svg id="_レイヤー_1" data-name="レイヤー_1" xmlns="http://www.w3.org/2000/svg" width="164.8" height="55.21" viewBox="0 0 164.8 55.21">
  <defs>
    <style>
      .cls-1 {
        fill: none;
        opacity: .2;
        stroke: #000;
        stroke-linecap: round;
        stroke-linejoin: round;
        stroke-width: 5px;
      }

      .cls-1, .cls-2 {
        isolation: isolate;
      }

      .cls-2 {
        fill: #fbca41;
      }
    </style>
  </defs>
  <g id="base">
    <path id="Story" class="cls-2" d="M12.7,45.31c-.7-.2-1.5-.4-2.4-.7v-.5c-.1-.2-.4-.3-.9-.3-.6-.4-1.2-.8-1.6-1.4-.5-.5-.9-1.1-1.2-1.6s-.6-1-.7-1.3c-.3-.6-.4-1-.4-1.1s.2-.3.7-.5c.4-.3.8-.4,1-.3.2.1.5.5.8,1.2.5.9,1.4,1.6,2.7,2.1s2.7.7,4.3.6c1.6,0,3.1-.4,4.5-1.1,1.5-.6,2.4-1.2,2.8-1.9s.2-1.5-.4-2.5c-.1-.3-.3-.6-.4-.8-.2-.2-.4-.5-.8-.8-.3-.3-.9-.8-1.6-1.6-.6-.3-1.2-.5-1.6-.8-.5-.2-1-.5-1.6-.8s-1.4-.8-2.3-1.4-1.8-1.3-2.6-2.1-1.4-1.5-1.7-2.1c-.6-.6-1.1-1.4-1.4-2.5-.3-1.1-.4-2.2-.4-3.4s.4-2.3.9-3.2c.2-.6.6-1.2,1.2-2.1.6-.8,1.2-1.7,1.9-2.5s1.4-1.6,2.1-2.3c.7-.7,1.2-1.2,1.7-1.4.3-.3.8-.8,1.6-1.5,0-.2.2-.3.4-.3.2-.1.6-.3,1.3-.6.7-.3,1.4-.8,2.2-1.6,2.7-1.3,4.9-2.2,6.5-2.8,1.7-.6,3.1-.9,4.1-.9s1.9.3,2.7.7c.8.4,1.5,1,2,1.7s.9,1.5,1,2.5c.3,1,.2,2.1-.2,3.3-.4,1.3-1.1,2.4-2,3.5s-1.8,1.9-2.8,2.5c-1.1.5-1.9.7-2.2.6-.4,0-.6-.5-.5-1.2,0-.3.1-.7.3-1.1s.8-1.2,1.8-2.3c1.3-1.9,2.1-3.4,2.3-4.5.3-1.1,0-1.7-.8-1.9h-1.3c-.6,0-1.3.2-2,.3-.7.1-1.4.3-1.9.4s-.8.2-.8.3c0,.2,0,.3-.2.3,0,0-.4.2-1,.5s-1.3.7-2.2,1.3c-.8.5-1.7,1-2.5,1.6-.8.5-1.6,1-2.1,1.4-.6.4-.9.6-.9.7,0,.4-.5.8-1.4,1.2-.8.5-1.5,1.2-2.2,2.1s-1.4,2.1-2.2,3.4c-.7.9-1.2,1.9-1.4,3-.3,1.1-.3,1.9,0,2.5.2.6.8,1.5,1.9,2.5,1,1,2.3,2,3.9,2.9,1.4.8,2.6,1.5,3.7,2.2s2,1.5,2.7,2.1c.7.7,1.2,1.3,1.4,1.8.5.7.8,1.4,1.1,2.1.2.7.3,1.4.4,2,0,.6,0,1.2-.2,1.7-.3.6-.8,1.3-1.5,2s-1.3,1-1.8,1c-.4.1-.8.3-1,.4-.2.2-.5.3-.8.4-.3.2-.9.3-1.8.5s-1.9.3-3,.3h-3l-.2.1ZM50.6,41.91c-.4,0-.9-.3-1.4-.7s-.9-.8-1.2-1.3-.6-1-.7-1.4c0,0-.1-.2-.3-.5-.2-.1-.3-.7-.3-1.6s0-2,.1-3.2.3-2.1.4-2.8c.2-.6.5-1.5.9-2.6s.7-2.1,1-3l1.6-3.5-2.4-.7c-.3,0-.5-.2-.7-.5-.2-.2-.3-.4-.3-.6,0-.3.2-.7.5-1.2.4-.5.6-.7.8-.7h2.7c.5,0,.8,0,1-.1.2,0,.3-.2.5-.3s.3-.3.4-.6c.2-.4.4-.8.5-1.2.2-.4.4-.8.7-1.3s.5-1,.7-1.3c.2-.4.5-.9.9-1.5.2-.3.4-.6.7-1,.2-.4.5-.7.9-1s.7-.5,1.1-.5.9.3,1.5.8c.3.4.5.7.5.9s-.1.6-.5,1.1c-.3.7-.7,1.4-1.1,2-.4.7-.8,1.4-1.2,2-.6.9-.8,1.4-.4,1.5.4.1,1.5,0,3.4-.2,1.2-.2,2-.2,2.5.1s.8.8.9,1.5c.1,1,0,1.5-.3,1.7s-1.2.3-2.8.3c-1,.2-1.8.3-2.5.3h-2.5c-.1,0-.4,0-.7.1-.3,0-.6.2-.7.4-.1.2-.3.4-.4.8-.2.2-.4.6-.7,1.3s-.7,1.4-1.2,2.2c-.6,1.7-1,3.4-1.4,5-.4,1.7-.7,3.3-1,4.8-.2,1-.1,1.7,0,2.1.2.4.7.6,1.6.7h2.1c1,0,1.7-.2,2.3-.3.4-.2.9-.4,1.4-.6s.9-.5,1.3-.7c.4-.2.9-.5,1.6-1,.2-.3.4-.4.7-.3.2.1.4.4.6.9,0,.5-.1,1-.3,1.5s-.9,1.1-2.2,1.9c-1.8,1.1-3.5,1.8-5,2s-2.8.2-3.8,0l.2.3ZM81.9,41.41c-.5,0-.9,0-1.2-.3-.3-.2-.7-.5-1.1-.8-.8-.8-1.3-1.6-1.6-2.3-.3-.7-.4-1.5-.3-2.1.1-.3.2-.8.1-1.4-.2-.2-.3-.3-.2-.4,0,0,.2-.2.2-.3.2,0,.3-.2.2-.7,0-.3,0-1,.5-2.1.4-1.1.9-2.1,1.5-3.1.2-.4.6-.9,1.1-1.6.5-.7,1-1.3,1.6-2s1.1-1.2,1.6-1.6c1-.8,1.9-1.5,2.6-1.9.8-.4,1.6-.7,2.5-.9s1.5-.3,1.8-.3.8.3,1.4,1c.9.4,1.6.9,2,1.4.4.6.7,1.4.8,2.5.1,1.2,0,2.6-.3,4.1s-1.2,3.5-2.8,5.7c-1,1.4-1.9,2.5-2.8,3.2-.8.7-1.8,1.4-3,2.1-.8.6-1.6,1-2.3,1.2-.7.3-1.5.4-2.4.5l.1.1ZM87.6,35.01c1-1.1,1.7-2.1,2.3-3.1.6-1,1.1-2.2,1.6-3.7.2-.4.3-1,.3-1.6v-1.9c0-.6-.2-.9-.5-1-.5-.3-1.1-.4-1.7-.3-.7.1-1.4.5-2.2,1.2-1.2,1-2.3,2.3-3.2,3.9-.9,1.5-1.8,3.3-2.7,5.2-.6,1.4-.7,2.6-.4,3.5.3.9,1.1,1.2,2.2.9s2.6-1.3,4.3-3.1h0ZM112,40.21c-.4-.3-.6-.6-.8-.8-.1-.3-.2-.8,0-1.6.1-1.1.3-2.1.5-3s.4-1.8.7-3c0-.5.3-1.3.7-2.5.4-1.2.8-2.4,1.4-3.8.6-1.4,1.1-2.6,1.7-3.9.6-1.2,1-2.1,1.4-2.7.3-.2.7-.3,1.2-.3s.8.2,1.2.5c.4.4.5,1,.2,1.9s-.9,2.3-1.8,4.2c-.5,1.1-.8,1.9-1.1,2.4s-.3.9-.3,1,.2,0,.5-.2c.2-.4.7-.9,1.3-1.5.6-.6,1.3-1.1,2-1.7.7-.6,1.4-1.1,2-1.5s1.1-.7,1.3-.8c.3-.2.7-.4,1.1-.5.4-.1.7-.2.9-.3.9-.4,1.9-.6,2.8-.5,1,.1,1.6.5,1.8,1.1,0,.3.3.6.7,1,.2,0,.3.1.3.4s-.2.5-.6.5-1,.1-1.6.2c-.5,0-1,.1-1.4.3s-.9.4-1.4.6c-1.5.9-3,1.7-4.4,2.6-1.4.8-2.7,2-4,3.4-.3.3-.6.7-.8,1.1-.3.4-.6.9-.9,1.4-.2.2-.4.6-.6,1.3s-.4,1.3-.5,2-.2,1-.2,1.1c-.2.8-.5,1.3-.8,1.7-.5.6-.9,1-1.2,1s-.8-.3-1.4-1l.1-.1ZM143.2,54.21c-1,.3-2,.3-3.2.1-1.1-.2-2.1-.5-3-1s-1.3-1.1-1.5-1.7c0-.2,0-.5.2-.8s.4-.5.7-.6.5,0,.7.2c.3.2.9.5,1.7.8s1.8.3,2.8.1c.9-.2,1.8-.7,2.7-1.6s1.6-1.7,2.2-2.5c.3-.5.9-1.3,1.6-2.6.8-1.2,1.5-2.6,2.4-4.1.8-1.5,1.5-2.9,2.1-4.2.1-.3.3-.7.4-1.1.2-.4.4-.8.6-1.1.2-.5.4-.9.6-1.4s.3-.7.3-.9.2-.6.5-1.2c.3-.6.6-1.2.9-1.8.2-.6.5-1.5.9-2.6s.8-2.1,1.2-2.8c.5-.9.9-1.7,1.2-2.2.3-.6.6-.9,1-1,.4-.3.6-.4.8-.4s.4.1.9.4c.5.5.8,1,.9,1.4.1.5,0,1-.2,1.7s-.6,1.6-1.2,2.7c-.3,1-.7,1.8-1,2.6-.4.8-.7,1.3-.9,1.5-.2.5-.4,1-.7,1.6s-.5,1.1-.7,1.6c-.7,1.6-1.3,2.9-1.9,3.9-.5,1-1,1.9-1.4,2.8-.4.8-.8,1.8-1.3,2.9-.9,1.5-1.8,2.9-2.7,4.2s-1.8,2.6-2.7,3.8c-.4.4-.9.8-1.5,1.3s-1.2.9-1.8,1.3-1.2.7-1.8.8l.2-.1ZM151.3,39.81c-.6,0-1.2-.4-1.8-1.1-.6-.6-1-1.3-1.3-2s-.4-1.2-.4-1.6v-.7c-.2,0-.4-.3-.6-.9-.2-.6-.3-1.4-.4-2.3,0-1-.1-2-.2-3.1v-3.1c.2-.7.2-1.4.2-2.2v-2c0-.6,0-1.1.2-1.3s.3-.4.5-.5c1.1-.5,1.9-.2,2.2.9.4,1.1.5,3,.3,5.9v4.8c0,1.6.3,3,.7,4.2s.9,2,1.6,2.5c.3.2.4.4.4.7s0,.6-.2.9c-.2.3-.4.5-.6.7-.3.2-.5.2-.8.2h.2Z"/>
  </g>
  <g id="mask">
    <path class="cls-1" d="M28.5,16.31c.7,0,5.1-5,6.2-6.8s.7-4.4,0-6.3-11.8.1-16.9,5.2-8.8,9.3-8.8,12,2,4.7,4.4,7.2c2.4,2.5,9.2,5.7,10.2,9.1s-1.4,5.3-5.5,6.3-6.5.8-8.2-1-6.3-6.3-6.3-6.3l-1.1,15.7,37,1.3,6.7-34.1s5.7,1,6.9,1,16.3-1,16.3-1c0,0-6.7-11-8.4-11s-10.9,19.3-11.5,22.9-2.1,7.9.5,9.2,13-3.5,13-3.5c0,0,13.6-20,17.9-20s12.8-.6,13.9.4c1.1,1-2.6,6.3-2.6,6.3,0,0-5.7-2.7-9.4,4s-3.9,11-1.9,12.1,6.7-.5,10-5.7,2.2-10.6,2.2-10.6l7-2.2,19.9-4s-3.8,8.7-4.9,13.7-1.8,13-1.8,13c0,0-.8-11,6.9-15.6s11.6-4.8,11.6-4.8c0,0,15.9-5.2,16.5-5.2s0,4.8,0,9,0,3.6.3,4.7c.8,3.8,4.2,8.5,4.2,8.5l-7.5-8s7.1-17.4,9.9-17.4,7.1,4.8,7.1,4.8c0,0-10.4,26.2-14.8,29.5s-4,4-6.3,4-5.9-2.3-5.9-2.3l-3.5-14.9"/>
  </g>
</svg>